<svg fill="#000000" xmlns="http://www.w3.org/2000/svg"  viewBox="0 0 64 64" width="100px" height="100px"><path d="M52,14c0-0.552,0.448-1,1-1h2c0.552,0,1,0.448,1,1s-0.448,1-1,1h-2C52.448,15,52,14.552,52,14z"/><path d="M52,19c0-0.552,0.448-1,1-1h2c0.552,0,1,0.448,1,1s-0.448,1-1,1h-2C52.448,20,52,19.552,52,19z"/><path d="M52,24c0-0.552,0.448-1,1-1h2c0.552,0,1,0.448,1,1s-0.448,1-1,1h-2C52.448,25,52,24.552,52,24z"/><path d="M52,29c0-0.552,0.448-1,1-1h2c0.552,0,1,0.448,1,1s-0.448,1-1,1h-2C52.448,30,52,29.552,52,29z"/><path d="M52,34c0-0.552,0.448-1,1-1h2c0.552,0,1,0.448,1,1s-0.448,1-1,1h-2C52.448,35,52,34.552,52,34z"/><path d="M52,39c0-0.552,0.448-1,1-1h2c0.552,0,1,0.448,1,1s-0.448,1-1,1h-2C52.448,40,52,39.552,52,39z"/><path d="M52,44c0-0.552,0.448-1,1-1h2c0.552,0,1,0.448,1,1s-0.448,1-1,1h-2C52.448,45,52,44.552,52,44z"/><path d="M52,49c0-0.552,0.448-1,1-1h2c0.552,0,1,0.448,1,1s-0.448,1-1,1h-2C52.448,50,52,49.552,52,49z"/><line x1="28.751" x2="46.043" y1="31.189" y2="18.226" fill="none" stroke="#000000" stroke-linejoin="round" stroke-miterlimit="10" stroke-width="2"/><path fill="none" stroke="#000000" stroke-linejoin="round" stroke-miterlimit="10" stroke-width="2" d="M14.327,31.301l-8.96,7.857 c-0.467,0.412-0.49,1.133-0.049,1.574l3.923,3.923c0.381,0.381,0.986,0.423,1.416,0.098l9.926-7.441"/><path fill="none" stroke="#000000" stroke-linejoin="round" stroke-miterlimit="10" stroke-width="2" d="M46.043,45.396 L10.669,17.237c-0.43-0.334-1.042-0.296-1.427,0.089l-3.926,3.926C4.88,21.688,4.897,22.4,5.353,22.815l38.023,35.359 c0.963,0.862,2.346,1.069,3.519,0.527l10.473-5.343c1.004-0.512,1.637-1.545,1.637-2.672V12.388c0-1.207-0.724-2.297-1.836-2.765 L46.896,5.299c-1.173-0.541-2.556-0.334-3.519,0.527L21.19,25.283"/><path fill="none" stroke="#000000" stroke-linejoin="round" stroke-miterlimit="10" stroke-width="2" d="M42.725,57.566 c0,0,3.278,0.768,3.278-3.553c0-11.882,0-32.115,0-43.997c0-4.321-3.278-3.618-3.278-3.618"/></svg>